<?xml version="1.0" encoding="UTF-8"?>
<svg xmlns="http://www.w3.org/2000/svg" viewBox="0 0 1200 800">
  <defs>
    <style>
      .cls-1 {
        fill: #fff;
      }

      .cls-2 {
        fill: #0096fa;
      }
    </style>
  </defs>
  <g id="frames">
    <path d="M1069.75,137.27h-425.79l-64.38-64.38H105.8l-.28,94.52-49.24,50.05v430.13l77.19,77.19h634.94l12.21-12.21h309.32l49.55-49.55V207.01l-69.74-69.74Z"/>
    <polygon class="cls-1" points="1062.06 152.18 620.09 152.18 620.09 193.6 597.88 215.81 79.1 215.81 74.49 220.42 74.49 224.47 74.49 638.3 89.27 653.08 534.44 653.08 554.96 632.56 958.16 632.94 958.16 642.19 559.7 642.19 539.52 662.37 97.48 662.37 110.73 675.62 562.25 675.62 579.05 658.82 604.42 658.82 587.62 675.62 603.71 675.62 620.51 658.82 644.51 658.82 627.71 675.62 643.81 675.62 660.61 658.82 684.61 658.82 667.81 675.62 683.9 675.62 700.7 658.82 724.7 658.82 707.9 675.62 723.99 675.62 740.79 658.82 1048.04 658.82 1090.11 616.75 1090.11 180.23 1062.06 152.18"/>
    <polygon class="cls-2" points="123.15 90.07 123.15 171.76 87.95 206.96 594.87 206.96 610.77 191.05 610.77 128.47 572.7 90.4 123.15 90.07"/>
  </g>
  <g id="_图层_4" data-name="图层 4">
    <g>
      <rect class="cls-1" x="406.25" y="151.27" width="30.69" height="30.69"/>
      <rect class="cls-1" x="463.59" y="151.27" width="30.69" height="30.69"/>
      <rect class="cls-1" x="520.93" y="151.27" width="30.69" height="30.69"/>
    </g>
  </g>
  <g id="_图层_5" data-name="图层 5">
    <polygon points="672.68 166.62 700.57 166.62 656.37 210.82 628.49 210.82 672.68 166.62"/>
    <polygon points="722.94 166.62 750.83 166.62 706.63 210.82 678.75 210.82 722.94 166.62"/>
    <polygon points="773.2 166.62 801.08 166.62 756.89 210.82 729.01 210.82 773.2 166.62"/>
    <polygon points="823.46 166.62 851.34 166.62 807.15 210.82 779.26 210.82 823.46 166.62"/>
    <polygon points="873.72 166.62 901.6 166.62 857.41 210.82 829.52 210.82 873.72 166.62"/>
  </g>
  <g id="NOW">
    <g>
      <polygon class="cls-2" points="291.31 388.02 217.19 251.54 129.74 251.54 129.74 582.73 223.02 582.73 223.02 445.34 297.98 582.73 383.76 582.73 383.76 251.54 291.31 251.54 291.31 388.02"/>
      <path class="cls-2" d="M450.39,251.54l-44.14,49.13v236.57l44.14,45.49h170.74l40.81-47.31v-237.47l-43.31-46.4h-168.24ZM571.16,491.74h-72.46v-148.31h72.46v148.31Z"/>
      <polygon class="cls-2" points="948.44 251.54 924.29 424.41 898.47 251.54 815.18 251.54 789.36 424.41 766.88 251.54 676.1 251.54 725.23 582.73 835.17 582.73 856.83 444.43 880.15 582.73 987.58 582.73 1037.56 251.54 948.44 251.54"/>
    </g>
  </g>
  <g id="Pixiv">
    <g>
      <path class="cls-1" d="M166.39,158.18h14.53c3.97,0,7.53-.85,10.67-2.56,3.13-1.7,5.62-4.11,7.45-7.23,1.83-3.12,2.75-6.77,2.75-10.95v-1.35c0-4.24-.88-7.91-2.65-11-1.77-3.09-4.22-5.48-7.36-7.19-3.14-1.7-6.75-2.56-10.85-2.56h-26.83v67.52h12.29v-24.69ZM166.39,126.93h13.32c2.92,0,5.28.84,7.08,2.51,1.8,1.67,2.7,3.96,2.7,6.85v.96c0,2.89-.9,5.18-2.7,6.85-1.8,1.67-4.16,2.51-7.08,2.51h-13.32v-19.68Z"/>
      <rect class="cls-1" x="210.73" y="135.03" width="11.74" height="47.85"/>
      <path class="cls-1" d="M216.59,129.43c2.17,0,3.97-.71,5.4-2.12,1.43-1.41,2.14-3.28,2.14-5.59s-.71-4.18-2.14-5.6c-1.43-1.41-3.23-2.12-5.4-2.12s-3.9.71-5.36,2.12c-1.46,1.42-2.19,3.28-2.19,5.6s.73,4.18,2.19,5.59c1.46,1.42,3.24,2.12,5.36,2.12Z"/>
      <polygon class="cls-1" points="245.19 182.87 255.71 166.77 257.39 166.77 267.92 182.87 281.7 182.87 264.94 158.76 281.52 135.03 267.92 135.03 257.39 150.95 255.71 150.95 245.19 135.03 231.59 135.03 248.17 158.76 231.4 182.87 245.19 182.87"/>
      <path class="cls-1" d="M296.51,129.43c2.17,0,3.97-.71,5.4-2.12,1.43-1.41,2.14-3.28,2.14-5.59s-.71-4.18-2.14-5.6c-1.43-1.41-3.23-2.12-5.4-2.12s-3.9.71-5.36,2.12c-1.46,1.42-2.19,3.28-2.19,5.6s.73,4.18,2.19,5.59c1.46,1.42,3.24,2.12,5.36,2.12Z"/>
      <rect class="cls-1" x="290.64" y="135.03" width="11.74" height="47.85"/>
      <polygon class="cls-1" points="343.73 182.87 358.45 135.03 345.97 135.03 335.26 174 333.58 174 322.87 135.03 310.39 135.03 325.11 182.87 343.73 182.87"/>
    </g>
  </g>
  <g id="_图层_7" data-name="图层 7">
    <polygon points="1046.27 232.97 1062.08 232.97 1062.08 182.14 1062.08 166.62 1046.27 166.62 983.03 166.62 983.03 182.14 1046.27 182.14 1046.27 232.97"/>
    <polygon points="105.18 618.73 105.18 557.74 89.93 557.74 89.93 618.73 89.93 634.54 105.18 634.54 169.55 634.54 169.55 618.73 105.18 618.73"/>
    <g>
      <circle cx="1054.58" cy="633.63" r="7.5"/>
      <circle cx="1029.5" cy="633.63" r="7.5"/>
      <circle cx="1004.42" cy="633.63" r="7.5"/>
      <circle cx="979.34" cy="633.63" r="7.5"/>
      <circle cx="1054.58" cy="608.64" r="7.5"/>
      <circle cx="1054.58" cy="583.65" r="7.5"/>
      <circle cx="1054.58" cy="558.66" r="7.5"/>
      <circle cx="1029.5" cy="583.65" r="7.5"/>
      <circle cx="1029.5" cy="608.64" r="7.5"/>
      <circle cx="1004.42" cy="608.64" r="7.5"/>
    </g>
  </g>
</svg>