<svg xmlns="http://www.w3.org/2000/svg" width="48" height="36" viewBox="0 0 48 36"><path fill="#EEE" fill-rule="evenodd" d="M32 35a2 2 0 110-4 2 2 0 010 4zm-3-21.945c0-2.423.313-5.31 1.8-5.31 1.06 0 2.2 1.661 2.2 5.31 0 3.664-1.042 7.622-1.67 9.68A14.958 14.958 0 0029 21.673v-8.618zm-10 8.618c-.816.291-1.594.648-2.329 1.062-.629-2.057-1.67-6.013-1.67-9.68 0-3.649 1.14-5.31 2.2-5.31 1.486 0 1.799 2.887 1.799 5.31v8.618zM16 35a2 2 0 110-4 2 2 0 010 4zm20-21.945c0-5.846-2.55-8.305-5.2-8.305-2.653 0-4.8 1.93-4.8 8.305v7.891c-.656-.089-1.32-.15-2-.15-.68 0-1.344.061-2 .15v-7.891c0-6.375-2.147-8.305-4.8-8.305-2.65 0-5.2 2.46-5.2 8.305 0 4.73 1.52 9.756 2.1 11.498-2.534 2.262-4.1 5.29-4.1 8.354C10 41.004 16.268 43 24 43s14-1.996 14-10.093c0-3.065-1.566-6.092-4.1-8.354.58-1.743 2.1-6.767 2.1-11.498z"/></svg>