<?xml version="1.0" encoding="UTF-8"?>
<svg xmlns="http://www.w3.org/2000/svg" viewBox="0 0 1200 722.17">
  <defs>
    <style>
      .cls-1 {
        fill: #fff;
      }

      .cls-2 {
        fill: #0096fa;
      }
    </style>
  </defs>
  <g id="frames">
    <path d="M1122.74,71.32h-471.7L579.73,0H54.86l-.31,104.71L0,160.15v476.5l85.51,85.51h703.4l13.53-13.53h342.67l54.9-54.9V148.58l-77.26-77.26Z"/>
    <polygon class="cls-1" points="1114.23 87.84 624.6 87.84 624.6 133.72 600 158.32 25.28 158.32 20.17 163.43 20.17 167.91 20.17 626.36 36.54 642.73 529.72 642.73 552.45 620 999.12 620.42 999.12 630.68 557.7 630.68 535.35 653.03 45.64 653.03 60.32 667.71 560.53 667.71 579.14 649.09 607.24 649.09 588.63 667.71 606.46 667.71 625.07 649.09 651.66 649.09 633.05 667.71 650.87 667.71 669.49 649.09 696.07 649.09 677.46 667.71 695.29 667.71 713.9 649.09 740.49 649.09 721.88 667.71 739.71 667.71 758.32 649.09 1098.69 649.09 1145.3 602.49 1145.3 118.91 1114.23 87.84"/>
    <polygon class="cls-2" points="74.08 19.02 74.08 109.52 35.08 148.52 596.66 148.52 614.28 130.9 614.28 61.56 572.1 19.39 74.08 19.02"/>
  </g>
  <g id="_图层_4" data-name="图层 4">
    <g>
      <rect class="cls-1" x="387.7" y="86.83" width="34" height="34"/>
      <rect class="cls-1" x="451.23" y="86.83" width="34" height="34"/>
      <rect class="cls-1" x="514.75" y="86.83" width="34" height="34"/>
    </g>
  </g>
  <g id="_图层_5" data-name="图层 5">
    <polygon points="682.87 103.83 713.75 103.83 664.79 152.79 633.9 152.79 682.87 103.83"/>
    <polygon points="738.54 103.83 769.43 103.83 720.47 152.79 689.58 152.79 738.54 103.83"/>
    <polygon points="794.22 103.83 825.11 103.83 776.15 152.79 745.26 152.79 794.22 103.83"/>
    <polygon points="849.9 103.83 880.79 103.83 831.83 152.79 800.94 152.79 849.9 103.83"/>
    <polygon points="905.58 103.83 936.46 103.83 887.5 152.79 856.61 152.79 905.58 103.83"/>
  </g>
  <g id="NOW">
    <g>
      <polygon class="cls-2" points="260.38 349.1 178.26 197.9 81.38 197.9 81.38 564.8 184.72 564.8 184.72 412.6 267.76 564.8 362.79 564.8 362.79 197.9 260.38 197.9 260.38 349.1"/>
      <path class="cls-2" d="M436.6,197.9l-48.9,54.43v262.07l48.9,50.4h189.14l45.21-52.41V249.31l-47.98-51.41h-186.38ZM570.39,464.01h-80.27v-164.3h80.27v164.3Z"/>
      <polygon class="cls-2" points="988.35 197.9 961.6 389.42 932.99 197.9 840.73 197.9 812.13 389.42 787.21 197.9 686.64 197.9 741.08 564.8 862.87 564.8 886.86 411.59 912.69 564.8 1031.72 564.8 1087.08 197.9 988.35 197.9"/>
    </g>
  </g>
  <g id="Pixiv">
    <g>
      <path class="cls-1" d="M121.98,94.48h16.1c4.4,0,8.34-.94,11.81-2.83,3.47-1.89,6.22-4.56,8.26-8.01,2.03-3.45,3.04-7.5,3.04-12.13v-1.5c0-4.7-.98-8.76-2.94-12.18-1.96-3.42-4.68-6.07-8.15-7.96-3.47-1.89-7.48-2.83-12.02-2.83h-29.72v74.8h13.62v-27.36ZM121.98,59.85h14.76c3.23,0,5.85.93,7.84,2.78,1.99,1.85,2.99,4.38,2.99,7.59v1.07c0,3.21-1,5.74-2.99,7.59-2,1.85-4.61,2.78-7.84,2.78h-14.76v-21.8Z"/>
      <rect class="cls-1" x="171.1" y="68.83" width="13" height="53"/>
      <path class="cls-1" d="M177.6,62.63c2.41,0,4.4-.78,5.98-2.35,1.58-1.57,2.37-3.63,2.37-6.2s-.79-4.63-2.37-6.2c-1.58-1.57-3.58-2.35-5.98-2.35s-4.32.78-5.93,2.35c-1.62,1.57-2.42,3.63-2.42,6.2s.81,4.63,2.42,6.2c1.62,1.57,3.59,2.35,5.93,2.35Z"/>
      <polygon class="cls-1" points="209.28 121.83 220.94 103.99 222.8 103.99 234.46 121.83 249.73 121.83 231.15 95.12 249.52 68.83 234.46 68.83 222.8 86.46 220.94 86.46 209.28 68.83 194.21 68.83 212.58 95.12 194.01 121.83 209.28 121.83"/>
      <path class="cls-1" d="M266.13,62.63c2.41,0,4.4-.78,5.98-2.35,1.58-1.57,2.37-3.63,2.37-6.2s-.79-4.63-2.37-6.2c-1.58-1.57-3.58-2.35-5.98-2.35s-4.32.78-5.93,2.35c-1.62,1.57-2.42,3.63-2.42,6.2s.81,4.63,2.42,6.2c1.62,1.57,3.59,2.35,5.93,2.35Z"/>
      <rect class="cls-1" x="259.63" y="68.83" width="13" height="53"/>
      <polygon class="cls-1" points="318.45 121.83 334.75 68.83 320.92 68.83 309.06 112 307.2 112 295.33 68.83 281.51 68.83 297.81 121.83 318.45 121.83"/>
    </g>
  </g>
  <g id="_图层_7" data-name="图层 7">
    <polygon points="1096.73 177.33 1114.25 177.33 1114.25 121.02 1114.25 103.83 1096.73 103.83 1026.67 103.83 1026.67 121.02 1096.73 121.02 1096.73 177.33"/>
    <polygon points="54.17 604.68 54.17 537.12 37.28 537.12 37.28 604.68 37.28 622.2 54.17 622.2 125.49 622.2 125.49 604.68 54.17 604.68"/>
    <g>
      <circle cx="1105.94" cy="621.18" r="8.31"/>
      <circle cx="1078.16" cy="621.18" r="8.31"/>
      <circle cx="1050.37" cy="621.18" r="8.31"/>
      <circle cx="1022.58" cy="621.18" r="8.31"/>
      <circle cx="1105.94" cy="593.5" r="8.31"/>
      <circle cx="1105.94" cy="565.82" r="8.31"/>
      <circle cx="1105.94" cy="538.14" r="8.31"/>
      <circle cx="1078.16" cy="565.82" r="8.31"/>
      <circle cx="1078.16" cy="593.5" r="8.31"/>
      <circle cx="1050.37" cy="593.5" r="8.31"/>
    </g>
  </g>
</svg>